<?xml version="1.0" encoding="UTF-8" standalone="no"?>
<!-- Generator: Adobe Illustrator 19.2.1, SVG Export Plug-In . SVG Version: 6.00 Build 0)  -->

<svg
   version="1.1"
   id="layer"
   x="0px"
   y="0px"
   viewBox="0 0 156.39999 156.39999"
   xml:space="preserve"
   width="156.39999"
   height="156.39999"
   xmlns="http://www.w3.org/2000/svg"
   xmlns:svg="http://www.w3.org/2000/svg"><defs
   id="defs3" />
<style
   type="text/css"
   id="style1">
	.st0{fill:#005DAA;}
</style>
<g
   id="g3"
   transform="translate(-26,-247.6)">
	<path
   class="st0"
   d="m 52.4,337.6 c 12.7,-0.7 22.6,-12.1 26.8,-23.5 -4.9,1.4 -9.8,4.3 -14.7,1.8 -0.7,-0.4 -3.7,-1 -1.6,-2.4 4.2,-2.9 8.9,-4.1 12.3,-8.2 3.5,-4.2 7.9,-8.3 8.4,-13.8 -2.3,0.1 -7.1,3.4 -6.1,-0.4 1.2,-4.7 6.7,-8.6 6.4,-13.9 l -0.2,-0.6 c -19.8,8.3 -33.4,28.3 -32.5,51.1 0,3.5 0.4,6.8 1.2,9.9 z m 104.5,-4.4 c 0.5,-3.1 0.7,-6.1 0.5,-9.4 -1.1,-29.4 -25.9,-52.3 -55.2,-51.2 -1.5,0.1 -2.9,0.2 -4.4,0.4 v 0.8 c 0.8,9 6.7,16.3 12.7,22.8 0.5,0.5 -0.1,1.1 -0.6,1.4 -2.9,1.1 -5.2,-3.1 -8.3,-1.1 1.6,1.7 2.3,4 3.7,6 3.7,5.1 8.9,7.6 12.1,12.4 1.4,2 -2.8,2.2 -4.7,3.3 -3.4,2 -7.3,-1.1 -11,-0.1 2.2,1.6 3.1,4.3 5.5,5.7 3.1,1.9 5.9,3.5 9.2,4.8 2.4,1 5.3,-0.1 7.5,2.1 -6,2.9 -11.4,8.1 -18.4,7.4 -0.2,3.4 3.4,3.9 5.5,4.8 2.1,0.8 4.6,0.2 6.4,-1 4.5,-3.1 8.9,-5.2 13,-8.7 5,-4.3 11.2,1 16.4,3.6 3.7,1.8 6.2,-3.1 9.8,-4.2 z M 148,356 c -10.4,0.4 -20.9,0.3 -31.3,1.4 -2.2,0.2 -6,-0.1 -6.1,1.6 -0.1,2.4 3.8,4 6.3,5.7 -6.7,2.5 -14.1,3.4 -20.9,1.6 0.5,3.2 -0.7,7.9 0.8,10.4 l 1,2 c 2.8,0.4 5.6,0.5 8.5,0.4 17.5,-0.7 32.7,-9.7 41.9,-23.1 m -90.9,-4.9 c 5.8,10.7 15.1,19.1 26.3,23.8 l 0.4,-1 c 1.4,-5.9 1.1,-11.9 1.4,-18 0.1,-2.8 -0.3,-5.6 -1.7,-8.2 -3.2,2.9 -10.9,9.1 -14.1,3.5 3,-1.7 4.4,-5 4.9,-8.4 -3.5,1 -5.6,4.2 -8.8,5.4 -2.7,1 -6.9,1.5 -7.3,1.8 0,0.1 -1.1,1.1 -1.1,1.1 z"
   id="path1" />
	<path
   class="st0"
   d="m 44,325.8 c 0,-33.3 26.9,-60.2 60.2,-60.2 33.2,0 60.2,27 60.2,60.2 0,33.3 -27,60.2 -60.2,60.2 C 70.9,386.1 44,359.1 44,325.8 Z m 60.3,56 c 31,0 56,-25.1 56,-56 0,-31 -25.1,-56 -56,-56 -31,0.1 -56,25.1 -56,56.1 -0.1,30.8 25,55.9 56,55.9 z"
   id="path2" />
	<path
   class="st0"
   d="m 104.2,247.6 c -43.1,0 -78.2,35.1 -78.2,78.2 0,43.1 35.1,78.2 78.2,78.2 43.1,0 78.2,-35.1 78.2,-78.2 0,-43.1 -35.1,-78.2 -78.2,-78.2 z m -72.4,78.2 c 0,-40 32.5,-72.4 72.4,-72.4 39.9,0 72.4,32.5 72.4,72.4 0,39.9 -32.5,72.4 -72.4,72.4 -39.9,0 -72.4,-32.5 -72.4,-72.4 z"
   id="path3" />
</g>
</svg>
